<svg width="88" height="88" viewBox="0 0 88 88" fill="none" xmlns="http://www.w3.org/2000/svg">
<mask id="mask0_0_1370" style="mask-type:alpha" maskUnits="userSpaceOnUse" x="0" y="0" width="88" height="88">
<rect opacity="0.1" width="88" height="88" rx="22" fill="#FF965D"/>
</mask>
<g mask="url(#mask0_0_1370)">
<rect width="88" height="88" fill="#FF965D"/>
</g>
<path d="M53.4231 33.3333C53.4231 38.488 49.2042 42.6667 44 42.6667C38.7958 42.6667 34.5769 38.488 34.5769 33.3333C34.5769 28.1787 38.7958 24 44 24C49.2042 24 53.4231 28.1787 53.4231 33.3333Z" fill="#FF965D"/>
<path d="M26.5 59.5552C26.5 51.7005 32.6151 45.333 40.1585 45.333H47.8415C55.3849 45.333 61.5 51.7005 61.5 59.5552C61.5 62.0098 59.589 63.9997 57.2317 63.9997H30.7683C28.411 63.9997 26.5 62.0098 26.5 59.5552Z" fill="#FF965D"/>
</svg>
