<svg width="40" height="40" viewBox="0 0 40 40" fill="none" xmlns="http://www.w3.org/2000/svg">
<path d="M20 39.9998C31.0155 39.9998 40 31.0155 40 20C40 8.9843 31.0157 0 20 0C8.9843 0 0 8.9843 0 19.9999C0 31.0154 8.9843 39.9998 20 39.9998Z" fill="#FFD240"/>
<path d="M25.5162 30.0348V25.9316H14.9651V30.0348L20.2406 34.7242L25.5162 30.0348Z" fill="#FFD7A3"/>
<path fill-rule="evenodd" clip-rule="evenodd" d="M35.1493 33.0338C31.4767 37.2948 26.0441 39.9996 20.0001 39.9996C14.1234 39.9996 8.82488 37.4426 5.16016 33.3844C5.43432 32.6821 6.03928 32.1349 6.80779 31.9541L14.0612 30.2474C14.2673 30.1988 14.4487 30.0966 14.5949 29.959L20.2406 33.5517L26.1155 30.1247C26.2098 30.1778 26.3105 30.2216 26.4201 30.2473L33.6735 31.954C34.3086 32.1034 34.832 32.5031 35.1493 33.0338Z" fill="#8B63E7"/>
<path d="M14.9651 25.9317V30.2609C21.6108 32.6553 25.5162 26.6627 25.5162 26.6627V25.9316H14.9651V25.9317Z" fill="#F0C290"/>
<path d="M12.6204 12.4502L13.1312 23.6879C13.1788 24.7377 13.6936 25.7113 14.5343 26.3418L16.958 28.1596C17.5668 28.6161 18.3072 28.863 19.0682 28.863H21.4129C22.174 28.863 22.9144 28.6162 23.5232 28.1596L25.9469 26.3418C26.7876 25.7112 27.3023 24.7378 27.35 23.6879L27.8608 12.4502C27.8607 12.4502 12.6204 12.4502 12.6204 12.4502Z" fill="#FFE1B2"/>
<path fill-rule="evenodd" clip-rule="evenodd" d="M19.969 40.0002H20.0312C20.5936 39.9993 21.1506 39.9751 21.7014 39.9283L21.34 34.7246H19.1419L18.7781 39.9632C19.1722 39.9871 19.5693 39.9996 19.969 40.0002Z" fill="#5B5D6E"/>
<path d="M21.7063 33.5518H18.7754V34.655C18.7754 35.0169 19.0688 35.3103 19.4307 35.3103H21.0509C21.4128 35.3103 21.7062 35.0169 21.7062 34.655V33.5518H21.7063Z" fill="#515262"/>
<path d="M14.8829 28.7296L20.2408 33.5517C20.2408 33.5517 18.7403 34.3092 16.8887 35.8359C16.5067 36.1508 15.9289 36.0232 15.724 35.5725L13.2068 30.0347L14.0031 28.8402C14.2013 28.5427 14.6172 28.4905 14.8829 28.7296Z" fill="white"/>
<path d="M25.5988 28.7296L20.241 33.5517C20.241 33.5517 21.7415 34.3092 23.5931 35.8359C23.9751 36.1508 24.5529 36.0232 24.7578 35.5725L27.275 30.0347L26.4787 28.8402C26.2804 28.5427 25.8645 28.4905 25.5988 28.7296Z" fill="white"/>
<path d="M23.7944 8.56631L24.3439 12.4497C26.8524 12.9514 27.2139 16.8881 27.266 18.0125C27.2754 18.2165 27.3406 18.4135 27.4513 18.5852L28.4084 20.0699C28.4084 20.0699 28.0808 17.6153 29.5807 15.9667C29.5808 15.9667 30.0958 6.22159 23.7944 8.56631Z" fill="#4E1E30"/>
<path d="M28.9963 19.8201L28.3346 22.4671C28.2561 22.7809 27.9743 23.0009 27.6509 23.0009C27.2954 23.0009 26.9956 22.7363 26.9515 22.3836L26.6131 19.6762C26.5225 18.9515 27.0875 18.3115 27.8178 18.3115H27.8183C28.6083 18.3116 29.1879 19.0538 28.9963 19.8201Z" fill="#FFE1B2"/>
<path d="M13.1822 7.51605L14.0492 8.10832C10.1292 11.0025 10.8619 15.9667 10.8619 15.9667C12.0342 17.139 12.0342 20.0699 12.0342 20.0699L13.2065 18.8976C13.2065 18.8976 12.7541 15.511 14.965 14.2082C17.0166 12.9992 18.8118 13.6221 20.6436 13.6221C25.5527 13.6221 26.9266 11.7719 26.6885 9.51885C26.5652 8.35303 24.7828 5.92457 20.2406 6.0018C18.4075 6.03294 14.9651 6.58796 13.1822 7.51605Z" fill="#66273F"/>
<path d="M12.8402 13.1091C12.8402 13.1091 12.2174 10.6545 14.0492 8.1084C10.1292 11.0026 10.8619 15.9668 10.8619 15.9668C12.0342 17.1391 12.0342 20.07 12.0342 20.07L13.2065 18.8977C13.2065 18.8977 12.7541 15.5111 14.965 14.2083C17.0166 12.9993 18.8118 13.6221 20.6436 13.6221C21.442 13.6221 22.1377 13.5687 22.7574 13.477C18.9768 13.6037 16.7481 10.74 12.8402 13.1091Z" fill="#4E1E30"/>
<path d="M11.4853 19.8201L12.1471 22.4671C12.2255 22.7809 12.5073 23.0009 12.8308 23.0009C13.1863 23.0009 13.486 22.7363 13.5301 22.3836L13.8686 19.6762C13.9592 18.9515 13.3942 18.3115 12.6638 18.3115H12.6633C11.8733 18.3116 11.2938 19.0538 11.4853 19.8201Z" fill="#FFE1B2"/>
</svg>
