<svg width="40" height="40" viewBox="0 0 40 40" fill="none" xmlns="http://www.w3.org/2000/svg">
<path d="M40 20C40 31.0457 31.0457 40 20 40C8.95431 40 0 31.0457 0 20C0 8.95431 8.95431 0 20 0C31.0457 0 40 8.95431 40 20Z" fill="#9868F8"/>
<path d="M30.4 17.9748V16.5025C30.4 16.1103 30.4913 15.7236 30.6667 15.3729C31.0161 14.4993 31.13 13.5493 30.9969 12.6179L30.9333 12.1729H18.4L8.8 27.6395L17.8667 30.5729L23.7333 22.8395H29.3333H30.6527C30.8373 22.8395 31.0193 22.7966 31.1843 22.714C31.3693 22.6215 31.527 22.4823 31.6418 22.3102L31.7501 22.1476C31.9131 21.9033 32 21.6161 32 21.3224C32 20.9278 31.8433 20.5494 31.5643 20.2704L31.2 19.9062C30.6878 19.394 30.4 18.6992 30.4 17.9748Z" fill="#FFDDCC"/>
<path fill-rule="evenodd" clip-rule="evenodd" d="M4.54492 32.6952C5.5453 30.5926 6.74765 28.5981 8.31811 26.6986C8.60241 26.3548 9.07617 26.2382 9.49311 26.3971L18.8185 29.9496C19.566 30.2343 20.1498 30.8386 20.3866 31.6025C21.2421 34.3625 21.8378 37.0319 22.1737 39.8826C21.4596 39.9598 20.7341 39.9995 19.9994 39.9995C13.7741 39.9995 8.213 37.1552 4.54492 32.6952Z" fill="#FFD240"/>
<path d="M29.5987 22.5724C28.2639 21.7723 24.0001 22.0389 23.7334 21.7724C22.1335 20.1728 24.3993 14.1732 25.5987 12.1724C35.7334 15.3724 35.7332 6.57246 26.3987 7.10579C16.1614 2.90593 8.24956 9.81668 13.0915 21.2251C13.2351 21.5635 13.5519 21.8018 13.9168 21.8461C15.0379 21.9824 17.3971 22.2418 17.5987 22.039C17.8639 21.7723 18.6668 19.9058 18.132 19.639C12.3246 16.7422 20.6326 10.996 21.5227 16.4789C21.6311 17.1462 21.4797 17.8334 21.1713 18.435C20.0018 20.7172 18.1875 22.8099 18.932 25.7724C19.2001 26.8391 23.5201 28.9191 25.8668 28.7058C28.2135 28.4925 30.9335 23.3725 29.5987 22.5724Z" fill="#4E1E30"/>
<path d="M27.734 17.7727C27.734 18.2145 28.0922 18.5727 28.534 18.5727C28.9758 18.5727 29.334 18.2145 29.334 17.7727C29.334 17.3308 28.9758 16.9727 28.534 16.9727C28.0922 16.9727 27.734 17.3308 27.734 17.7727Z" fill="#4A1827"/>
<path d="M30.4004 15.3722C30.4004 15.0776 30.1616 14.8389 29.8671 14.8389H27.2004C26.9058 14.8389 26.6671 15.0776 26.6671 15.3722C26.6671 15.6668 26.9058 15.9055 27.2004 15.9055H29.8671C30.1616 15.9055 30.4004 15.6668 30.4004 15.3722Z" fill="#5B2C3E"/>
</svg>
