<svg width="88" height="88" viewBox="0 0 88 88" fill="none" xmlns="http://www.w3.org/2000/svg">
<mask id="mask0_0_1380" style="mask-type:alpha" maskUnits="userSpaceOnUse" x="0" y="0" width="88" height="88">
<rect opacity="0.1" width="88" height="88" rx="22" fill="#FF965D"/>
</mask>
<g mask="url(#mask0_0_1380)">
<rect width="88" height="88" fill="#FF965D"/>
</g>
<path d="M24.8 50.5498C24.8 49.5833 25.6358 48.7998 26.6667 48.7998H32.5334C33.5643 48.7998 34.4 49.5833 34.4 50.5498V60.7998H24.8V50.5498Z" fill="#FF965D"/>
<path d="M39.2 38.7089C39.2 37.6545 40.0357 36.7998 41.0666 36.7998H46.9333C47.9642 36.7998 48.7999 37.6545 48.7999 38.7089V60.7998H39.2V38.7089Z" fill="#FF965D"/>
<path d="M53.6001 29.1602C53.6001 28.0777 54.4358 27.2002 55.4668 27.2002H61.3334C62.3644 27.2002 63.2001 28.0777 63.2001 29.1602V60.8002H53.6001V29.1602Z" fill="#FF965D"/>
</svg>
