<svg width="40" height="40" viewBox="0 0 40 40" fill="none" xmlns="http://www.w3.org/2000/svg">
<path d="M20 39.9998C31.0155 39.9998 40 31.0155 40 20C40 8.9843 31.0157 0 20 0C8.9843 0 0 8.9843 0 19.9999C0 31.0154 8.9843 39.9998 20 39.9998Z" fill="#304FFD"/>
<path d="M24.8461 7.04114L21.0769 27.5027L23.7693 28.0411C29.4679 23.8681 31.9134 7.04114 24.8461 7.04114Z" fill="#4E1E30"/>
<path d="M24.8464 7.04119C23.904 6.46904 18.9307 5.016 15.154 7.04119C10.5098 9.53159 6.44886 18.4386 13.0002 27.5028C13.0095 27.5156 17.8464 26.9643 17.8464 26.9643L24.8464 7.04119Z" fill="#4E1E30"/>
<path fill-rule="evenodd" clip-rule="evenodd" d="M24.8462 39.4044C23.2936 39.7932 21.6702 39.9997 20 39.9997C18.3298 39.9997 16.7064 39.7932 15.1538 39.4044V28.368C16.2256 27.5587 16.2308 26.2208 16.2308 24.9899V23.7335H23.7692V24.9912H23.7985C23.7985 26.2116 23.8018 27.5378 24.8462 28.3492V39.4044Z" fill="#FFD7A3"/>
<path fill-rule="evenodd" clip-rule="evenodd" d="M24.3077 39.5312C22.9196 39.838 21.4781 39.9997 20 39.9997C18.9006 39.9997 17.8213 39.9102 16.7693 39.7381V34.621C17.7496 34.8876 18.8422 35.0412 20.0001 35.0412C21.603 35.0412 23.0862 34.7532 24.3077 34.2657V39.5312Z" fill="#0090FF"/>
<path d="M24.3077 30.7336C24.5041 30.7872 24.6811 30.8158 24.8461 30.8297V28.3493C23.8018 27.5379 23.7984 26.2116 23.7984 24.9912L23.7977 24.96V23.7023L17.8461 23.7335L16.2307 24.272C17.3077 25.4836 20.6058 29.724 24.3077 30.7336Z" fill="#FDC88E"/>
<path d="M27.5388 16.7334C27.5388 21.0455 23.2503 26.4258 20.0004 26.4258C16.7504 26.4258 12.4619 21.0455 12.4619 16.7334C12.4619 12.4214 15.837 10.8103 20.0004 10.8103C24.1637 10.8103 27.5388 12.4214 27.5388 16.7334Z" fill="#FFE1B2"/>
<path d="M21.0769 8.11804C20.7744 8.11804 19.7921 8.45796 18.9893 8.75582L18.9231 8.65648C18.9231 8.65648 18.8123 8.74354 18.6205 8.89444C18.1739 9.06399 17.8462 9.19492 17.8462 9.19492L17.9721 9.40489C15.9284 11.0151 11.2654 14.6987 10.8461 15.118C10.3077 15.6565 14.0769 29.3943 14.0769 21.5796C14.0769 15.0508 17.7041 13.7578 21.0769 12.9642C22.6025 12.6052 23.0513 11.7078 23.2307 10.8104C23.4103 9.91297 21.6154 8.11804 21.0769 8.11804Z" fill="#4E1E30"/>
<path d="M22.6924 11.3488C23.6795 14.8936 25.6539 16.4978 27.5049 16.969C28.5192 17.2272 28.077 14.0411 28.077 14.0411C28.077 14.0411 26.6411 10.3616 26.4617 10.2719C26.2822 10.1822 24.8463 7.04114 24.8463 7.04114L21.6155 9.73348L22.6924 11.3488Z" fill="#4E1E30"/>
<path fill-rule="evenodd" clip-rule="evenodd" d="M18.5548 39.9479L15.7452 27.7228C15.2409 28.5421 14.2127 29.1181 12.1026 29.1181H11.9232C8.9014 29.1181 6.40806 31.381 6.04541 34.3047C9.32999 37.5098 13.708 39.599 18.5548 39.9479Z" fill="#FF965D"/>
<path fill-rule="evenodd" clip-rule="evenodd" d="M33.9547 34.3046C33.592 31.381 31.0987 29.1181 28.077 29.1181H27.8975C25.7875 29.1181 24.7593 28.5421 24.255 27.7228L21.4453 39.9479C26.2921 39.599 30.6701 37.5097 33.9547 34.3046Z" fill="#FF965D"/>
<path d="M26.7364 16.7827C27.6174 16.5808 28.1947 17.0123 28.1947 17.8597C28.1947 18.9815 27.0098 21.7299 25.7642 20.0135C24.5186 18.2971 26.7364 16.7827 26.7364 16.7827Z" fill="#FFE1B2"/>
</svg>
